<svg width="59" height="59" viewBox="0 0 59 59" fill="none" xmlns="http://www.w3.org/2000/svg">
<circle cx="29.5" cy="29.5" r="29" fill="url(#paint0_diamond_302_11)" stroke="url(#paint1_diamond_302_11)"/>
<path d="M31.3686 13.0146C31.3686 14.2398 30.4844 15.1423 29.5 15.1423C28.5155 15.1423 27.6313 14.2398 27.6313 13.0146C27.6313 11.7894 28.5155 10.8869 29.5 10.8869C30.4844 10.8869 31.3686 11.7894 31.3686 13.0146Z" fill="#FBFBF2" stroke="url(#paint2_diamond_302_11)"/>
<path d="M31.2372 44.6277C31.2372 45.853 30.3531 46.7555 29.3686 46.7555C28.3842 46.7555 27.5 45.853 27.5 44.6277C27.5 43.4025 28.3842 42.5 29.3686 42.5C30.3531 42.5 31.2372 43.4025 31.2372 44.6277Z" fill="#FBFBF2" stroke="url(#paint3_diamond_302_11)"/>
<path d="M14.54 33.12C13.956 33.12 13.44 33.04 12.992 32.88C12.544 32.712 12.116 32.444 11.708 32.076C11.54 31.932 11.456 31.768 11.456 31.584C11.456 31.44 11.512 31.312 11.624 31.2C11.736 31.08 11.868 31.02 12.02 31.02C12.156 31.02 12.272 31.064 12.368 31.152C12.688 31.448 13.016 31.668 13.352 31.812C13.696 31.948 14.084 32.016 14.516 32.016C15.02 32.016 15.444 31.9 15.788 31.668C16.14 31.436 16.316 31.144 16.316 30.792C16.308 30.376 16.132 30.056 15.788 29.832C15.452 29.6 14.936 29.408 14.24 29.256C13.416 29.088 12.78 28.812 12.332 28.428C11.892 28.044 11.672 27.512 11.672 26.832C11.672 26.36 11.796 25.948 12.044 25.596C12.292 25.236 12.636 24.96 13.076 24.768C13.516 24.576 14.012 24.48 14.564 24.48C15.06 24.48 15.528 24.56 15.968 24.72C16.408 24.88 16.764 25.092 17.036 25.356C17.22 25.516 17.312 25.688 17.312 25.872C17.312 26.016 17.256 26.144 17.144 26.256C17.04 26.368 16.912 26.424 16.76 26.424C16.648 26.424 16.556 26.392 16.484 26.328C16.276 26.12 15.988 25.944 15.62 25.8C15.252 25.656 14.9 25.584 14.564 25.584C14.028 25.584 13.6 25.696 13.28 25.92C12.968 26.136 12.812 26.424 12.812 26.784C12.812 27.176 12.968 27.476 13.28 27.684C13.6 27.892 14.072 28.068 14.696 28.212C15.32 28.348 15.828 28.508 16.22 28.692C16.62 28.876 16.928 29.132 17.144 29.46C17.36 29.788 17.468 30.216 17.468 30.744C17.468 31.208 17.336 31.62 17.072 31.98C16.816 32.34 16.464 32.62 16.016 32.82C15.568 33.02 15.076 33.12 14.54 33.12Z" fill="#FBFBF2"/>
<path d="M47.044 24.6C47.22 24.6 47.364 24.656 47.476 24.768C47.588 24.872 47.644 25.008 47.644 25.176V32.412C47.636 32.58 47.576 32.72 47.464 32.832C47.352 32.944 47.208 33 47.032 33C46.872 33 46.732 32.944 46.612 32.832C46.5 32.72 46.444 32.58 46.444 32.412V29.304H42.184V32.412C42.184 32.58 42.124 32.72 42.004 32.832C41.884 32.944 41.744 33 41.584 33C41.408 33 41.264 32.944 41.152 32.832C41.048 32.72 40.996 32.58 40.996 32.412V25.176C40.996 25.016 41.052 24.88 41.164 24.768C41.276 24.656 41.42 24.6 41.596 24.6C41.756 24.6 41.892 24.656 42.004 24.768C42.124 24.88 42.184 25.016 42.184 25.176V28.2H46.444V25.176C46.444 25.016 46.504 24.88 46.624 24.768C46.744 24.656 46.884 24.6 47.044 24.6Z" fill="#FBFBF2"/>
<path d="M13 45L46.5 12.5" stroke="#FBFBF2"/>
<path d="M46 45.5L13.5 12" stroke="#FBFBF2"/>
<defs>
<radialGradient id="paint0_diamond_302_11" cx="0" cy="0" r="1" gradientUnits="userSpaceOnUse" gradientTransform="translate(29.5 29.5) rotate(90) scale(29.5)">
<stop offset="0.59375"/>
<stop offset="1" stop-color="#0A0A0A" stop-opacity="0"/>
</radialGradient>
<radialGradient id="paint1_diamond_302_11" cx="0" cy="0" r="1" gradientUnits="userSpaceOnUse" gradientTransform="translate(29.5 29.5) rotate(90) scale(29.5)">
<stop offset="0.59375"/>
<stop offset="1" stop-color="#0A0A0A" stop-opacity="0"/>
</radialGradient>
<radialGradient id="paint2_diamond_302_11" cx="0" cy="0" r="1" gradientUnits="userSpaceOnUse" gradientTransform="translate(29.5 13.0146) rotate(90) scale(2.62774 2.36861)">
<stop offset="0.59375"/>
<stop offset="1" stop-color="#0A0A0A" stop-opacity="0"/>
</radialGradient>
<radialGradient id="paint3_diamond_302_11" cx="0" cy="0" r="1" gradientUnits="userSpaceOnUse" gradientTransform="translate(29.3686 44.6277) rotate(90) scale(2.62774 2.36861)">
<stop offset="0.59375"/>
<stop offset="1" stop-color="#0A0A0A" stop-opacity="0"/>
</radialGradient>
</defs>
</svg>
