<svg width="65" height="109" viewBox="0 0 65 109" fill="none" xmlns="http://www.w3.org/2000/svg">
<path d="M58.5 29.7931H6L16.5 107.293H48L58.5 29.7931Z" fill="#FFDB80" stroke="#111111" stroke-width="2"/>
<circle cx="21.5" cy="101.793" r="3.5" fill="#111111"/>
<circle cx="21.5" cy="101.793" r="3.5" fill="#111111"/>
<circle cx="21.5" cy="101.793" r="3.5" fill="#111111"/>
<circle cx="21.5" cy="101.793" r="3.5" fill="#111111"/>
<circle cx="21.5" cy="101.793" r="3.5" fill="#111111"/>
<circle cx="21.5" cy="101.793" r="3.5" fill="#111111"/>
<circle cx="21.5" cy="101.793" r="3.5" fill="#111111"/>
<circle cx="36.5" cy="94.7931" r="3.5" fill="#111111"/>
<circle cx="21.5" cy="101.793" r="3.5" fill="#111111"/>
<circle cx="31.5" cy="102.793" r="3.5" fill="#111111"/>
<circle cx="19.5" cy="91.7931" r="3.5" fill="#111111"/>
<circle cx="44.5" cy="90.7931" r="3.5" fill="#111111"/>
<circle cx="36.5" cy="86.7931" r="3.5" fill="#111111"/>
<circle cx="26.5" cy="84.7931" r="3.5" fill="#111111"/>
<circle cx="28.5" cy="93.7931" r="3.5" fill="#111111"/>
<circle cx="41.5" cy="101.793" r="3.5" fill="#111111"/>
<rect x="34.6504" width="6" height="30" transform="rotate(10 34.6504 0)" fill="#111111"/>
<path d="M0 30H65" stroke="#111111" stroke-width="2"/>
</svg>
