<svg width="231" height="116" viewBox="0 0 231 116" fill="none" xmlns="http://www.w3.org/2000/svg">
<circle cx="115" cy="55" r="45" fill="#BFF3A6"/>
<path d="M80.1739 18.7041C86.8789 22.5745 92.4719 28.1093 96.4123 34.7734C100.353 41.4375 102.507 49.0055 102.667 56.7457C102.828 64.486 100.988 72.1366 97.327 78.9581C93.6658 85.7796 88.3066 91.5411 81.7675 95.6856L79.6038 92.2719C85.5556 88.4996 90.4334 83.2555 93.7658 77.0467C97.0982 70.8379 98.7724 63.8744 98.6266 56.8294C98.4808 49.7843 96.5198 42.896 92.9333 36.8305C89.3468 30.7649 84.2561 25.7272 78.1533 22.2045L80.1739 18.7041Z" fill="#FBFBF2"/>
<path d="M150.18 96.6501C143.475 92.7797 137.882 87.2449 133.942 80.5808C130.001 73.9167 127.847 66.3487 127.687 58.6084C127.526 50.8682 129.366 43.2175 133.027 36.396C136.688 29.5746 142.048 23.813 148.587 19.6685L150.75 23.0822C144.799 26.8546 139.921 32.0986 136.588 38.3074C133.256 44.5162 131.582 51.4797 131.728 58.5248C131.873 65.5698 133.834 72.4581 137.421 78.5236C141.007 84.5892 146.098 89.6269 152.201 93.1497L150.18 96.6501Z" fill="#FBFBF2"/>
</svg>
