<svg width="231" height="121" viewBox="0 0 231 121" fill="none" xmlns="http://www.w3.org/2000/svg">
<circle cx="115" cy="60" r="45" fill="#FFDB80"/>
<path d="M142.497 96.0558C137.55 91.5828 133.659 86.0661 131.105 79.9048C128.552 73.7435 127.4 67.0917 127.733 60.4306C128.066 53.7695 129.875 47.2657 133.03 41.3898C136.185 35.5138 140.607 30.4125 145.975 26.4551L148.374 29.7084C143.487 33.3104 139.463 37.9535 136.591 43.3017C133.72 48.6499 132.073 54.5696 131.77 60.6324C131.467 66.6952 132.515 72.7496 134.839 78.3575C137.163 83.9654 140.705 88.9866 145.207 93.0579L142.497 96.0558Z" fill="#FBFBF2"/>
<path d="M87.8574 24.2983C92.8045 28.7713 96.6954 34.288 99.2487 40.4493C101.802 46.6105 102.954 53.2624 102.621 59.9234C102.288 66.5845 100.479 73.0883 97.3237 78.9643C94.1687 84.8403 89.7471 89.9415 84.3787 93.8989L81.9805 90.6457C86.8667 87.0437 90.8912 82.4006 93.7628 77.0524C96.6344 71.7042 98.2813 65.7845 98.5843 59.7217C98.8873 53.6589 97.8389 47.6045 95.5149 41.9966C93.191 36.3887 89.6495 31.3674 85.1468 27.2962L87.8574 24.2983Z" fill="#FBFBF2"/>
</svg>
