<svg width="115" height="115" viewBox="0 0 115 115" fill="none" xmlns="http://www.w3.org/2000/svg">
<g clip-path="url(#clip0_813_11)">
<path fill-rule="evenodd" clip-rule="evenodd" d="M57.2803 115L57.3318 115H57.314L57.2803 115ZM57.686 115H57.6682L57.7197 115L57.686 115ZM57.1047 114.999L57.1602 114.999H57.1283L57.1047 114.999V114.999ZM57.8717 114.999H57.8398L57.8953 114.999L57.8717 114.999ZM56.9353 114.997L56.9724 114.998L56.9427 114.997H56.9353ZM58.0573 114.997L58.0276 114.998L58.0647 114.997H58.0573ZM58.2428 114.995L58.2298 114.996L58.2798 114.995L58.2428 114.995ZM56.7202 114.995L56.7702 114.996L56.7572 114.995L56.7202 114.995V114.995ZM58.4281 114.993L58.3978 114.993L58.4595 114.992L58.4281 114.993ZM56.5405 114.992L56.6022 114.993L56.5719 114.993L56.5405 114.992V114.992ZM58.6132 114.989L58.5723 114.99L58.6293 114.989L58.6132 114.989ZM56.3707 114.989L56.4277 114.99L56.3868 114.989L56.3707 114.989ZM56.1602 114.985L56.2107 114.986L56.2018 114.986L56.1602 114.985ZM58.7982 114.986L58.7893 114.986L58.8398 114.985L58.7982 114.986ZM55.9756 114.98L56.045 114.982L56.0169 114.981L55.9756 114.98ZM58.9831 114.981L58.955 114.982L59.0244 114.98L58.9831 114.981ZM59.1679 114.976L59.1228 114.978L59.1938 114.976L59.1679 114.976V114.976ZM55.8062 114.976L55.8772 114.978L55.8321 114.976L55.8062 114.976V114.976ZM55.6445 114.971L55.695 114.972L55.6474 114.971L55.6038 114.969L55.6445 114.971V114.971ZM59.3526 114.971L59.305 114.972L59.3555 114.971L59.3961 114.969L59.3526 114.971ZM59.537 114.965L59.5118 114.965L59.5893 114.963L59.537 114.965ZM55.4107 114.963L55.4882 114.965L55.463 114.965L55.4107 114.963ZM55.2425 114.956L55.3238 114.959L55.2786 114.958L55.2425 114.956ZM59.7214 114.958L59.6762 114.959L59.7575 114.956L59.7214 114.958ZM55.0774 114.95L55.1569 114.953L55.0947 114.951L55.0774 114.95V114.95ZM59.9053 114.951L59.8431 114.953L59.9226 114.95L59.9053 114.951V114.951ZM54.846 114.94L54.9314 114.943L54.9105 114.943L54.846 114.94ZM60.0895 114.943L60.0686 114.943L60.154 114.94L60.0895 114.943ZM54.68 114.932L54.7685 114.936L54.7267 114.934L54.68 114.932ZM60.2732 114.934L60.2315 114.936L60.32 114.932L60.2732 114.934ZM54.5165 114.924L54.6057 114.928L54.543 114.925L54.5165 114.924ZM60.457 114.925L60.3943 114.928L60.4835 114.924L60.457 114.925ZM60.6407 114.916L60.5594 114.92L60.6315 114.916L60.7164 114.911L60.6407 114.916ZM54.3685 114.916L54.4406 114.92L54.3593 114.916L54.2836 114.911L54.3685 114.916ZM60.824 114.905L60.7881 114.907L60.8793 114.902L60.824 114.905ZM54.1208 114.902L54.2119 114.907L54.176 114.905L54.1208 114.902ZM53.9586 114.892L54.0496 114.898L53.9927 114.895L53.9586 114.892V114.892ZM61.0073 114.895L60.9504 114.898L61.0414 114.892L61.0073 114.895ZM53.8038 114.883L53.8858 114.888L53.8094 114.883L53.7326 114.878L53.8038 114.883ZM61.1906 114.883L61.1142 114.888L61.1962 114.883L61.2674 114.878L61.1906 114.883V114.883ZM61.3734 114.871L61.346 114.873L61.4329 114.867L61.3734 114.871V114.871ZM53.5671 114.867L53.654 114.873L53.6266 114.871L53.5671 114.867V114.867ZM53.4051 114.856L53.4905 114.862L53.4438 114.859L53.4051 114.856ZM61.5562 114.859L61.5095 114.862L61.5949 114.856L61.5562 114.859V114.859ZM53.2437 114.845L53.322 114.85L53.2612 114.846L53.2437 114.845ZM61.7388 114.846L61.678 114.85L61.7564 114.845L61.7388 114.846ZM53.0265 114.828L53.0952 114.833L53.0786 114.832L53.0265 114.828V114.828ZM61.9214 114.832L61.9048 114.833L61.9735 114.828L61.9214 114.832V114.832ZM62.1036 114.818L62.0708 114.821L62.1407 114.815L62.1036 114.818V114.818ZM52.8593 114.815L52.9292 114.821L52.8964 114.818L52.8593 114.815V114.815ZM52.6965 114.802L52.7558 114.807L52.714 114.803L52.6965 114.802ZM62.286 114.803L62.2442 114.807L62.3035 114.802L62.286 114.803V114.803ZM52.5173 114.787L52.535 114.788L52.5321 114.788L52.5173 114.787V114.787ZM62.4679 114.788L62.465 114.788L62.4827 114.787L62.4679 114.788V114.788ZM62.6498 114.772L62.6337 114.773L62.6743 114.77L62.6498 114.772V114.772ZM52.3257 114.77L52.3663 114.773L52.3502 114.772L52.3257 114.77V114.77ZM52.1572 114.755L52.1875 114.757L52.1687 114.756L52.1572 114.755ZM62.8313 114.756L62.8125 114.757L62.8428 114.755L62.8313 114.756ZM48.5156 114.301C21.0416 109.982 0 86.179 0 57.5C0 25.7649 25.7649 0 57.5 0C89.2351 0 115 25.7649 115 57.5C115 86.179 93.9584 109.982 66.4844 114.301V74.1211H79.8823L82.4316 57.5H66.4844V46.714C66.4844 42.1668 68.712 37.7344 75.8549 37.7344H83.1055V23.584C83.1055 23.584 76.5253 22.4609 70.2342 22.4609C57.1 22.4609 48.5156 30.4211 48.5156 44.832V57.5H33.916V74.1211H48.5156V114.301Z" fill="#111111"/>
</g>
<defs>
<clipPath id="clip0_813_11">
<rect width="115" height="115" fill="white"/>
</clipPath>
</defs>
</svg>
