<svg width="129" height="127" viewBox="0 0 129 127" fill="none" xmlns="http://www.w3.org/2000/svg">
<path d="M64.4919 0C28.8799 0 0 28.9927 0 64.758C0 93.3637 18.4793 117.632 44.118 126.202C47.343 126.799 48.5201 124.799 48.5201 123.082C48.5201 121.542 48.4637 117.471 48.4314 112.069C30.4924 115.979 26.703 103.385 26.703 103.385C23.7763 95.9034 19.5435 93.912 19.5435 93.912C13.6821 89.8969 19.9789 89.9775 19.9789 89.9775C26.4531 90.4371 29.8554 96.6532 29.8554 96.6532C35.6121 106.546 44.9565 103.692 48.633 102.031C49.2135 97.8465 50.8824 94.9924 52.7287 93.3718C38.4097 91.7351 23.349 86.1801 23.349 61.3717C23.349 54.3009 25.8645 48.5201 29.9925 43.989C29.3233 42.3523 27.1142 35.7652 30.6214 26.8562C30.6214 26.8562 36.0394 25.1147 48.3589 33.4916C53.5028 32.0565 59.0175 31.3389 64.5081 31.3148C69.9825 31.347 75.5053 32.0565 80.6572 33.4997C92.9687 25.1228 98.3786 26.8643 98.3786 26.8643C101.894 35.7814 99.6847 42.3604 99.0236 43.9971C103.16 48.5282 105.651 54.309 105.651 61.3798C105.651 86.2526 90.5741 91.7271 76.2067 93.3315C78.5207 95.331 80.5847 99.2816 80.5847 105.32C80.5847 113.98 80.5041 120.962 80.5041 123.082C80.5041 124.816 81.6651 126.831 84.9384 126.194C110.537 117.616 129 93.3557 129 64.758C129 28.9927 100.12 0 64.4919 0Z" fill="black"/>
</svg>
