<svg width="212" height="212" viewBox="0 0 212 212" fill="none" xmlns="http://www.w3.org/2000/svg">
<path d="M109.916 118.412L146.993 144.193V92.8728L130.593 104.168L109.916 118.412Z" fill="black"/>
<path d="M106.002 14.6693C55.1473 14.6693 13.9188 55.8904 13.9188 106.745C13.9188 157.6 55.1473 198.828 106.002 198.828C156.853 198.828 198.081 157.6 198.081 106.745C198.081 55.8904 156.853 14.6693 106.002 14.6693ZM149.255 148.49V148.492H62.7376H59.4828C54.4544 148.492 50.3396 144.378 50.3396 139.349V76.8924C50.3396 71.8637 54.454 67.7492 59.4828 67.7492L59.5187 67.7761L59.4828 67.7469H152.788C157.816 67.7469 161.931 71.861 161.931 76.8894V79.5395L161.933 79.5377L161.931 79.5403L161.946 139.357C161.727 146.006 158.846 148.379 149.255 148.49Z" fill="black"/>
<path d="M105.983 120.642C105.536 120.642 105.089 120.507 104.704 120.24L104.036 119.775L65.9562 146.254H146.037L107.946 119.769C107.946 119.769 106.426 120.642 105.983 120.642Z" fill="black"/>
<path d="M152.785 67.7491L152.787 67.7469L152.779 67.7531L152.785 67.7491Z" fill="black"/>
<path d="M145.975 69.9846H66.259L105.987 99.4399L145.975 69.9846Z" fill="black"/>
<path d="M102.04 118.386L64.9985 92.8717L64.9775 144.209L102.077 118.412L102.04 118.386Z" fill="black"/>
</svg>
