<svg width="134" height="134" viewBox="0 0 134 134" fill="none" xmlns="http://www.w3.org/2000/svg">
<g clip-path="url(#clip0_306_67)">
<path d="M79.8242 67C79.8242 74.0828 74.0828 79.8242 67 79.8242C59.9172 79.8242 54.1758 74.0828 54.1758 67C54.1758 59.9172 59.9172 54.1758 67 54.1758C74.0828 54.1758 79.8242 59.9172 79.8242 67Z" fill="black"/>
<path d="M96.9913 44.3102C96.3748 42.6397 95.3913 41.1277 94.1134 39.8866C92.8723 38.6086 91.3613 37.6251 89.6897 37.0087C88.3341 36.4822 86.2976 35.8555 82.5467 35.6847C78.489 35.4997 77.2724 35.4598 66.9999 35.4598C56.7265 35.4598 55.5099 35.4987 51.4532 35.6837C47.7023 35.8555 45.6648 36.4822 44.3102 37.0087C42.6386 37.6251 41.1266 38.6086 39.8865 39.8866C38.6086 41.1277 37.6251 42.6387 37.0076 44.3102C36.4811 45.6658 35.8544 47.7034 35.6837 51.4543C35.4986 55.511 35.4587 56.7275 35.4587 67.001C35.4587 77.2735 35.4986 78.4901 35.6837 82.5477C35.8544 86.2987 36.4811 88.3352 37.0076 89.6908C37.6251 91.3623 38.6075 92.8734 39.8855 94.1145C41.1266 95.3924 42.6376 96.3759 44.3091 96.9924C45.6648 97.5199 47.7023 98.1466 51.4532 98.3173C55.5099 98.5024 56.7254 98.5412 66.9989 98.5412C77.2734 98.5412 78.49 98.5024 82.5456 98.3173C86.2966 98.1466 88.3341 97.5199 89.6897 96.9924C93.0451 95.6981 95.697 93.0461 96.9913 89.6908C97.5178 88.3352 98.1445 86.2987 98.3162 82.5477C98.5013 78.4901 98.5401 77.2735 98.5401 67.001C98.5401 56.7275 98.5013 55.511 98.3162 51.4543C98.1455 47.7034 97.5188 45.6658 96.9913 44.3102V44.3102ZM66.9999 86.7557C56.0885 86.7557 47.2432 77.9114 47.2432 67C47.2432 56.0886 56.0885 47.2443 66.9999 47.2443C77.9103 47.2443 86.7556 56.0886 86.7556 67C86.7556 77.9114 77.9103 86.7557 66.9999 86.7557ZM87.5367 51.0801C84.987 51.0801 82.9198 49.013 82.9198 46.4633C82.9198 43.9135 84.987 41.8464 87.5367 41.8464C90.0864 41.8464 92.1536 43.9135 92.1536 46.4633C92.1525 49.013 90.0864 51.0801 87.5367 51.0801Z" fill="black"/>
<path d="M67 0C30.0026 0 0 30.0026 0 67C0 103.997 30.0026 134 67 134C103.997 134 134 103.997 134 67C134 30.0026 103.997 0 67 0ZM105.241 82.8616C105.055 86.9571 104.403 89.7532 103.453 92.2007C101.454 97.3686 97.3686 101.454 92.2007 103.453C89.7542 104.403 86.9571 105.053 82.8626 105.241C78.76 105.428 77.4493 105.473 67.001 105.473C56.5517 105.473 55.2421 105.428 51.1384 105.241C47.0439 105.053 44.2468 104.403 41.8004 103.453C39.2323 102.486 36.9075 100.972 34.9855 99.0145C33.0287 97.0936 31.5146 94.7677 30.5485 92.2007C29.5977 89.7542 28.9465 86.9571 28.7604 82.8626C28.5713 78.7589 28.5273 77.4483 28.5273 67C28.5273 56.5517 28.5713 55.2411 28.7594 51.1384C28.9455 47.0429 29.5957 44.2468 30.5465 41.7993C31.5126 39.2323 33.0277 36.9064 34.9855 34.9855C36.9064 33.0277 39.2323 31.5136 41.7993 30.5475C44.2468 29.5967 47.0429 28.9465 51.1384 28.7594C55.2411 28.5723 56.5517 28.5273 67 28.5273C77.4483 28.5273 78.7589 28.5723 82.8616 28.7604C86.9571 28.9465 89.7532 29.5967 92.2007 30.5465C94.7677 31.5126 97.0936 33.0277 99.0156 34.9855C100.972 36.9075 102.487 39.2323 103.453 41.7993C104.404 44.2468 105.055 47.0429 105.242 51.1384C105.429 55.2411 105.473 56.5517 105.473 67C105.473 77.4483 105.429 78.7589 105.241 82.8616V82.8616Z" fill="black"/>
</g>
<defs>
<clipPath id="clip0_306_67">
<rect width="134" height="134" fill="white"/>
</clipPath>
</defs>
</svg>
