<svg width="213" height="213" viewBox="0 0 213 213" fill="none" xmlns="http://www.w3.org/2000/svg">
<g clip-path="url(#clip0_306_71)">
<path d="M106.5 0C47.6907 0 0 47.6907 0 106.5C0 165.309 47.6907 213 106.5 213C165.309 213 213 165.309 213 106.5C213 47.6907 165.309 0 106.5 0ZM75.5523 160.998H49.6147V82.9642H75.5523V160.998ZM62.5844 72.3087H62.4153C53.7115 72.3087 48.0823 66.3171 48.0823 58.8288C48.0823 51.1715 53.8838 45.3457 62.7566 45.3457C71.6294 45.3457 77.0896 51.1715 77.2587 58.8288C77.2587 66.3171 71.6294 72.3087 62.5844 72.3087ZM169.078 160.998H143.144V119.252C143.144 108.76 139.388 101.605 130.003 101.605C122.838 101.605 118.571 106.432 116.696 111.091C116.01 112.758 115.842 115.088 115.842 117.42V160.998H89.9065C89.9065 160.998 90.2461 90.2851 89.9065 82.9642H115.842V94.013C119.289 88.6958 125.456 81.1328 139.217 81.1328C156.282 81.1328 169.078 92.2856 169.078 116.254V160.998Z" fill="black"/>
</g>
<defs>
<clipPath id="clip0_306_71">
<rect width="213" height="213" fill="white"/>
</clipPath>
</defs>
</svg>
