<svg width="181" height="181" viewBox="0 0 181 181" fill="none" xmlns="http://www.w3.org/2000/svg">
<g clip-path="url(#clip0_306_73)">
<path fill-rule="evenodd" clip-rule="evenodd" d="M90.5 181C140.482 181 181 140.482 181 90.5C181 40.5183 140.482 0 90.5 0C40.5181 0 0 40.5183 0 90.5C0 140.482 40.5181 181 90.5 181ZM112.22 92.31H66.97V101.36H112.22V92.31ZM66.97 108.6H112.22V117.65H66.97V108.6ZM112.22 124.89H66.97V133.94H112.22V124.89ZM56.11 63.35V141.18H124.89V39.82H79.64L56.11 63.35ZM54.3 28.96C49.3019 28.96 45.25 33.0119 45.25 38.01V142.99C45.25 147.988 49.3019 152.04 54.3 152.04H126.7C131.698 152.04 135.75 147.988 135.75 142.99V38.01C135.75 33.0119 131.698 28.96 126.7 28.96H54.3ZM80.4025 72.2871C77.5712 74.5235 75.5626 77.6367 74.6916 81.1381L90.5 85.07L106.226 80.8192C105.284 77.336 103.213 74.2643 100.337 72.0854C98.7203 70.8606 96.9009 69.957 94.9765 69.4072C97.7083 67.8493 99.55 64.9099 99.55 61.54C99.55 56.5419 95.4981 52.49 90.5 52.49C85.5019 52.49 81.45 56.5419 81.45 61.54C81.45 64.9099 83.2917 67.8493 86.0235 69.4072C83.993 69.9874 82.0813 70.9609 80.4025 72.2871Z" fill="black"/>
</g>
<defs>
<clipPath id="clip0_306_73">
<rect width="181" height="181" fill="white"/>
</clipPath>
</defs>
</svg>
