<svg width="60" height="60" viewBox="0 0 60 60" fill="none" xmlns="http://www.w3.org/2000/svg">
<rect width="60" height="60" fill="#111111"/>
<path d="M15.8 45.4C13.8533 45.4 12.1333 45.1333 10.64 44.6C9.14667 44.04 7.72 43.1467 6.36 41.92C5.8 41.44 5.52 40.8933 5.52 40.28C5.52 39.8 5.70667 39.3733 6.08 39C6.45333 38.6 6.89333 38.4 7.4 38.4C7.85333 38.4 8.24 38.5467 8.56 38.84C9.62667 39.8267 10.72 40.56 11.84 41.04C12.9867 41.4933 14.28 41.72 15.72 41.72C17.4 41.72 18.8133 41.3333 19.96 40.56C21.1333 39.7867 21.72 38.8133 21.72 37.64C21.6933 36.2533 21.1067 35.1867 19.96 34.44C18.84 33.6667 17.12 33.0267 14.8 32.52C12.0533 31.96 9.93333 31.04 8.44 29.76C6.97333 28.48 6.24 26.7067 6.24 24.44C6.24 22.8667 6.65333 21.4933 7.48 20.32C8.30667 19.12 9.45333 18.2 10.92 17.56C12.3867 16.92 14.04 16.6 15.88 16.6C17.5333 16.6 19.0933 16.8667 20.56 17.4C22.0267 17.9333 23.2133 18.64 24.12 19.52C24.7333 20.0533 25.04 20.6267 25.04 21.24C25.04 21.72 24.8533 22.1467 24.48 22.52C24.1333 22.8933 23.7067 23.08 23.2 23.08C22.8267 23.08 22.52 22.9733 22.28 22.76C21.5867 22.0667 20.6267 21.48 19.4 21C18.1733 20.52 17 20.28 15.88 20.28C14.0933 20.28 12.6667 20.6533 11.6 21.4C10.56 22.12 10.04 23.08 10.04 24.28C10.04 25.5867 10.56 26.5867 11.6 27.28C12.6667 27.9733 14.24 28.56 16.32 29.04C18.4 29.4933 20.0933 30.0267 21.4 30.64C22.7333 31.2533 23.76 32.1067 24.48 33.2C25.2 34.2933 25.56 35.72 25.56 37.48C25.56 39.0267 25.12 40.4 24.24 41.6C23.3867 42.8 22.2133 43.7333 20.72 44.4C19.2267 45.0667 17.5867 45.4 15.8 45.4ZM50.7613 17C51.3479 17 51.8279 17.1867 52.2013 17.56C52.5746 17.9067 52.7613 18.36 52.7613 18.92V43.04C52.7346 43.6 52.5346 44.0667 52.1613 44.44C51.7879 44.8133 51.3079 45 50.7213 45C50.1879 45 49.7213 44.8133 49.3212 44.44C48.9479 44.0667 48.7613 43.6 48.7613 43.04V32.68H34.5613V43.04C34.5613 43.6 34.3613 44.0667 33.9613 44.44C33.5613 44.8133 33.0946 45 32.5612 45C31.9746 45 31.4946 44.8133 31.1213 44.44C30.7746 44.0667 30.6013 43.6 30.6013 43.04V18.92C30.6013 18.3867 30.7879 17.9333 31.1613 17.56C31.5346 17.1867 32.0146 17 32.6013 17C33.1346 17 33.5879 17.1867 33.9613 17.56C34.3613 17.9333 34.5613 18.3867 34.5613 18.92V29H48.7613V18.92C48.7613 18.3867 48.9613 17.9333 49.3613 17.56C49.7613 17.1867 50.2279 17 50.7613 17Z" fill="#FBFBF2"/>
</svg>
