<svg width="683" height="683" viewBox="0 0 683 683" fill="none" xmlns="http://www.w3.org/2000/svg">
<g clip-path="url(#clip0_306_71)">
<path d="M341.333 0C152.849 0 0 152.849 0 341.333C0 529.818 152.849 682.667 341.333 682.667C529.818 682.667 682.667 529.818 682.667 341.333C682.667 152.849 529.818 0 341.333 0ZM242.146 516H159.016V265.901H242.146V516ZM200.583 231.75H200.042C172.146 231.75 154.104 212.547 154.104 188.547C154.104 164.005 172.698 145.333 201.135 145.333C229.573 145.333 247.073 164.005 247.615 188.547C247.615 212.547 229.573 231.75 200.583 231.75ZM541.896 516H458.776V382.203C458.776 348.578 446.74 325.646 416.661 325.646C393.698 325.646 380.021 341.115 374.01 356.047C371.813 361.391 371.276 368.859 371.276 376.333V516H288.151C288.151 516 289.24 289.365 288.151 265.901H371.276V301.313C382.323 284.271 402.089 260.031 446.193 260.031C500.885 260.031 541.896 295.776 541.896 372.594V516Z" fill="url(#paint0_radial_306_71)"/>
</g>
<defs>
<radialGradient id="paint0_radial_306_71" cx="0" cy="0" r="1" gradientUnits="userSpaceOnUse" gradientTransform="translate(341.333 341.333) rotate(90) scale(341.333)">
<stop offset="0.671875"/>
<stop offset="1" stop-opacity="0"/>
</radialGradient>
<clipPath id="clip0_306_71">
<rect width="682.667" height="682.667" fill="white"/>
</clipPath>
</defs>
</svg>
