<svg width="100" height="100" viewBox="0 0 100 100" fill="none" xmlns="http://www.w3.org/2000/svg">
<g clip-path="url(#clip0_306_73)">
<path fill-rule="evenodd" clip-rule="evenodd" d="M50 100C77.6143 100 100 77.6142 100 50C100 22.3858 77.6143 0 50 0C22.3857 0 0 22.3858 0 50C0 77.6142 22.3857 100 50 100ZM62 51H37V56H62V51ZM37 60H62V65H37V60ZM62 69H37V74H62V69ZM31 35V78H69V22H44L31 35ZM30 16C27.2386 16 25 18.2386 25 21V79C25 81.7614 27.2386 84 30 84H70C72.7614 84 75 81.7614 75 79V21C75 18.2386 72.7614 16 70 16H30ZM44.4213 39.9376C42.857 41.1732 41.7473 42.8932 41.2661 44.8277L50 47L58.6882 44.6515C58.168 42.7271 57.0237 41.03 55.4348 39.8262C54.5416 39.1495 53.5364 38.6503 52.4732 38.3465C53.9825 37.4858 55 35.8618 55 34C55 31.2386 52.7614 29 50 29C47.2386 29 45 31.2386 45 34C45 35.8618 46.0175 37.4858 47.5268 38.3465C46.405 38.6671 45.3488 39.2049 44.4213 39.9376Z" fill="url(#paint0_radial_306_73)"/>
</g>
<defs>
<radialGradient id="paint0_radial_306_73" cx="0" cy="0" r="1" gradientUnits="userSpaceOnUse" gradientTransform="translate(50 50) rotate(90) scale(50)">
<stop offset="0.671875"/>
<stop offset="1" stop-opacity="0"/>
</radialGradient>
<clipPath id="clip0_306_73">
<rect width="100" height="100" fill="white"/>
</clipPath>
</defs>
</svg>
