<?xml version="1.0" encoding="UTF-8"?> <svg xmlns="http://www.w3.org/2000/svg" width="814" height="196" viewBox="0 0 814 196" fill="none"><path d="M122.152 174.416C113.399 178.946 103.974 181.745 94.1438 182.811C84.3141 183.877 75.5615 184.41 68.0209 184.41C52.9395 184.41 39.7434 180.412 28.2978 172.283C16.8521 164.155 11.3313 150.695 11.3313 132.039C11.3313 114.582 16.4482 102.189 26.8166 94.5927C37.0503 87.1301 50.1118 82.1995 66.1357 79.6675C68.2902 79.6675 70.7139 79.401 73.6763 78.7347C76.6387 78.0684 80.0051 77.5354 83.7754 77.1356C102.223 74.7369 111.514 69.2732 111.514 61.0111C111.514 54.7479 108.283 50.75 101.819 48.8844C95.2211 47.0188 89.1616 46.0859 83.7754 46.0859C77.8506 46.0859 72.5991 46.8855 68.0209 48.6179C63.4426 50.217 60.0762 53.4153 57.9218 57.9461H15.7749C17.3908 45.0199 23.3156 34.359 33.4146 26.0969C44.7256 16.5021 60.8842 11.7048 81.8903 11.7048C105.455 11.7048 122.96 15.7026 134.81 23.5649C146.928 31.8271 153.123 43.554 153.123 58.4791V115.248C153.123 131.906 150.025 144.832 143.966 154.16C137.772 163.488 130.501 170.285 122.152 174.416ZM112.053 97.7909C106.263 100.589 98.0488 103.388 87.5458 105.787L73.0031 108.985C65.4624 110.984 60.0762 113.782 56.7099 117.114C53.7475 121.645 52.2663 126.175 52.2663 130.706C52.2663 136.969 54.1514 141.9 57.9218 145.631C61.6921 148.963 67.2129 150.562 74.3496 150.562C86.0646 150.562 95.3557 147.231 102.088 140.568C108.821 133.904 112.188 124.843 112.188 113.116V97.7909H112.053Z" fill="#111A2D"></path><path d="M305.417 13.5709V110.851C305.417 140.301 297.607 159.624 282.122 168.819C266.636 178.014 249.535 182.545 231.087 182.545C213.044 181.745 196.616 176.682 181.669 167.62C166.723 158.425 159.317 139.635 159.317 110.851V13.5709H203.349V119.513C203.349 129.507 206.311 136.703 212.101 141.368C218.026 145.898 224.759 148.164 232.299 148.164C239.84 148.164 246.707 145.898 252.767 141.368C258.826 136.837 261.923 129.507 261.923 119.513V34.7593C261.923 28.8959 263.943 23.9652 267.848 19.8342C271.888 15.7031 277.005 13.5709 283.333 13.5709H305.417V13.5709Z" fill="#111A2D"></path><path d="M312.284 180.946V100.59C312.284 84.3323 314.708 70.7397 319.556 59.8124C324.403 48.7518 331.001 39.9566 339.35 33.2936C347.294 27.0303 356.72 22.4995 367.358 19.5678C377.996 16.636 389.037 15.1702 400.483 15.1702C401.291 15.1702 402.368 15.1702 403.58 15.1702C404.792 15.1702 405.869 15.1702 406.677 15.1702V59.4126H392.134C380.015 59.4126 370.994 62.3443 365.069 68.0745C359.144 73.938 356.316 82.9997 356.316 95.5262V180.946H312.284Z" fill="#111A2D"></path><path d="M431.992 166.421C423.239 158.958 416.911 148.83 413.14 136.171C409.37 123.511 407.485 110.318 407.485 96.5922C407.485 85.3983 409.101 74.2045 412.198 62.8773C415.295 51.5502 420.277 42.3552 427.01 34.8927C437.917 22.3662 451.921 15.0369 469.157 12.7714C486.392 10.506 501.878 11.8386 515.747 16.7693C531.636 23.0325 543.486 33.8266 551.027 49.1515C558.163 62.8773 561.664 78.8686 561.664 97.1253C561.664 110.451 560.183 121.912 557.221 131.373C554.258 140.968 550.488 149.097 545.91 155.627C535.811 169.352 523.018 177.881 507.533 181.213C493.664 184.944 479.66 185.21 465.656 182.145C451.517 179.214 440.341 173.883 431.992 166.421ZM462.155 56.7474C453.402 66.3421 449.362 80.601 450.17 99.3907C450.978 118.314 454.614 131.506 460.808 138.969C463.366 142.301 467.675 145.099 474.004 147.364C480.333 149.63 486.662 149.896 493.26 148.031C499.723 146.165 505.513 141.501 510.63 134.038C515.612 126.576 518.44 114.582 518.844 97.9248C518.844 82.9997 516.42 71.8058 511.573 64.2099C506.725 56.7474 501.204 51.95 494.876 49.8178C488.547 47.6857 482.218 47.6857 476.024 49.5513C469.695 51.4169 465.117 53.8156 462.155 56.7474Z" fill="#111A2D"></path><path d="M568.667 180.946V100.59C568.667 84.3323 571.09 70.7397 575.938 59.8124C580.785 48.7518 587.384 39.9566 595.732 33.2936C603.677 27.0303 613.103 22.4995 623.74 19.5678C634.378 16.636 645.42 15.1702 656.865 15.1702C657.673 15.1702 658.75 15.1702 659.962 15.1702C661.174 15.1702 662.251 15.1702 663.059 15.1702V59.4126H648.517C636.398 59.4126 627.376 62.3443 621.451 68.0745C615.526 73.938 612.699 82.9997 612.699 95.5262V180.946H568.667Z" fill="#111A2D"></path><path d="M774.553 174.416C765.801 178.947 756.375 181.745 746.545 182.812C736.715 183.878 727.963 184.411 720.422 184.411C705.341 184.411 692.145 180.413 680.699 172.284C669.388 164.155 663.733 150.829 663.733 132.039C663.733 114.582 668.85 102.189 679.218 94.5932C689.452 87.1307 702.648 82.0668 718.537 79.6681C720.691 79.6681 723.115 79.4016 726.078 78.7353C729.04 78.069 732.406 77.5359 736.177 77.1361C754.624 74.6042 763.916 69.2738 763.916 60.8784C763.916 54.6151 760.684 50.6173 754.22 48.7517C747.757 46.886 741.698 45.9532 736.311 45.9532C730.387 45.9532 725.135 46.7528 720.557 48.4852C715.979 50.0843 712.612 53.2825 710.458 57.8134H668.311C669.927 44.8871 675.852 34.3596 685.951 26.0974C696.992 16.5027 713.151 11.7053 734.157 11.7053C757.721 11.7053 775.361 15.7031 787.076 23.5655C799.195 31.8276 805.389 43.5545 805.389 58.4797V115.249C805.389 131.906 802.292 144.832 796.233 154.161C790.173 163.489 782.902 170.285 774.553 174.416ZM764.454 97.7915C758.529 100.723 750.45 103.388 739.947 105.92L725.404 108.985C717.864 111.118 712.343 113.783 708.977 117.114C706.014 121.645 704.533 126.309 704.533 130.84C704.533 137.103 706.418 142.034 710.188 145.765C713.959 149.097 719.48 150.696 726.616 150.696C738.331 150.696 747.622 147.364 754.355 140.701C761.088 134.038 764.454 124.977 764.454 113.25V97.7915V97.7915Z" fill="#111A2D"></path></svg> 